<mxfile host="65bd71144e">
    <diagram id="uD9Ss9uAFpr1xHXilTXu" name="ログイン">
        <mxGraphModel dx="953" dy="698" grid="1" gridSize="10" guides="1" tooltips="1" connect="1" arrows="1" fold="1" page="1" pageScale="1" pageWidth="827" pageHeight="1169" math="0" shadow="0">
            <root>
                <mxCell id="0"/>
                <mxCell id="1" parent="0"/>
                <mxCell id="Lo5zNJrsym4IysGLBa4M-8" style="edgeStyle=none;html=1;entryX=-0.006;entryY=0.548;entryDx=0;entryDy=0;entryPerimeter=0;fontSize=9;" parent="1" source="2" target="P72vRbyliiHvL0oEmRon-12" edge="1">
                    <mxGeometry relative="1" as="geometry"/>
                </mxCell>
                <mxCell id="2" value="システム管理者&lt;br&gt;" style="shape=umlActor;verticalLabelPosition=bottom;verticalAlign=top;html=1;" parent="1" vertex="1">
                    <mxGeometry x="30" y="250" width="40" height="70" as="geometry"/>
                </mxCell>
                <mxCell id="3" value="システム&lt;br&gt;管理者" style="ellipse;shape=umlEntity;whiteSpace=wrap;html=1;" parent="1" vertex="1">
                    <mxGeometry x="710" y="330" width="80" height="80" as="geometry"/>
                </mxCell>
                <mxCell id="P72vRbyliiHvL0oEmRon-15" style="edgeStyle=none;html=1;entryX=-0.005;entryY=0.517;entryDx=0;entryDy=0;entryPerimeter=0;fontSize=14;" parent="1" source="P72vRbyliiHvL0oEmRon-12" target="P72vRbyliiHvL0oEmRon-14" edge="1">
                    <mxGeometry relative="1" as="geometry"/>
                </mxCell>
                <mxCell id="P72vRbyliiHvL0oEmRon-12" value="ログイン画面" style="shape=umlBoundary;whiteSpace=wrap;html=1;fontSize=12;" parent="1" vertex="1">
                    <mxGeometry x="210" y="170" width="100" height="80" as="geometry"/>
                </mxCell>
                <mxCell id="P72vRbyliiHvL0oEmRon-20" style="edgeStyle=none;html=1;fontSize=14;" parent="1" source="P72vRbyliiHvL0oEmRon-14" target="P72vRbyliiHvL0oEmRon-19" edge="1">
                    <mxGeometry relative="1" as="geometry">
                        <mxPoint x="485" y="460" as="targetPoint"/>
                    </mxGeometry>
                </mxCell>
                <mxCell id="P72vRbyliiHvL0oEmRon-14" value="&lt;font style=&quot;font-size: 14px;&quot;&gt;表示3&lt;/font&gt;" style="ellipse;shape=umlControl;whiteSpace=wrap;html=1;fontSize=12;" parent="1" vertex="1">
                    <mxGeometry x="480" y="170" width="70" height="80" as="geometry"/>
                </mxCell>
                <mxCell id="P72vRbyliiHvL0oEmRon-18" value="" style="endArrow=classic;startArrow=classic;html=1;fontSize=14;entryX=0;entryY=0.5;entryDx=0;entryDy=0;exitX=1.014;exitY=0.533;exitDx=0;exitDy=0;exitPerimeter=0;" parent="1" source="P72vRbyliiHvL0oEmRon-19" target="3" edge="1">
                    <mxGeometry width="50" height="50" relative="1" as="geometry">
                        <mxPoint x="660" y="480" as="sourcePoint"/>
                        <mxPoint x="460" y="380" as="targetPoint"/>
                    </mxGeometry>
                </mxCell>
                <mxCell id="P72vRbyliiHvL0oEmRon-22" style="edgeStyle=none;html=1;fontSize=14;" parent="1" source="P72vRbyliiHvL0oEmRon-19" target="P72vRbyliiHvL0oEmRon-21" edge="1">
                    <mxGeometry relative="1" as="geometry"/>
                </mxCell>
                <mxCell id="P72vRbyliiHvL0oEmRon-24" style="edgeStyle=none;html=1;fontSize=14;" parent="1" source="P72vRbyliiHvL0oEmRon-19" target="P72vRbyliiHvL0oEmRon-23" edge="1">
                    <mxGeometry relative="1" as="geometry"/>
                </mxCell>
                <mxCell id="P72vRbyliiHvL0oEmRon-19" value="本人情報&lt;br&gt;認証" style="ellipse;shape=umlControl;whiteSpace=wrap;html=1;fontSize=14;" parent="1" vertex="1">
                    <mxGeometry x="470" y="330" width="70" height="80" as="geometry"/>
                </mxCell>
                <mxCell id="P72vRbyliiHvL0oEmRon-21" value="ログイン&lt;br&gt;完了画面" style="shape=umlBoundary;whiteSpace=wrap;html=1;fontSize=14;" parent="1" vertex="1">
                    <mxGeometry x="160" y="330" width="100" height="80" as="geometry"/>
                </mxCell>
                <mxCell id="P72vRbyliiHvL0oEmRon-26" style="edgeStyle=none;html=1;entryX=1.017;entryY=0.508;entryDx=0;entryDy=0;entryPerimeter=0;fontSize=14;" parent="1" source="P72vRbyliiHvL0oEmRon-23" target="P72vRbyliiHvL0oEmRon-25" edge="1">
                    <mxGeometry relative="1" as="geometry"/>
                </mxCell>
                <mxCell id="P72vRbyliiHvL0oEmRon-29" style="edgeStyle=none;html=1;entryX=1.037;entryY=0.475;entryDx=0;entryDy=0;entryPerimeter=0;fontSize=14;" parent="1" source="P72vRbyliiHvL0oEmRon-23" target="P72vRbyliiHvL0oEmRon-28" edge="1">
                    <mxGeometry relative="1" as="geometry"/>
                </mxCell>
                <mxCell id="P72vRbyliiHvL0oEmRon-33" style="edgeStyle=none;html=1;entryX=1.03;entryY=0.525;entryDx=0;entryDy=0;entryPerimeter=0;fontSize=9;" parent="1" source="P72vRbyliiHvL0oEmRon-23" target="P72vRbyliiHvL0oEmRon-32" edge="1">
                    <mxGeometry relative="1" as="geometry"/>
                </mxCell>
                <mxCell id="P72vRbyliiHvL0oEmRon-23" value="エラーの表示" style="ellipse;shape=umlControl;whiteSpace=wrap;html=1;fontSize=14;" parent="1" vertex="1">
                    <mxGeometry x="450" y="450" width="70" height="80" as="geometry"/>
                </mxCell>
                <mxCell id="P72vRbyliiHvL0oEmRon-25" value="エラー画面" style="shape=umlBoundary;whiteSpace=wrap;html=1;fontSize=14;" parent="1" vertex="1">
                    <mxGeometry x="140" y="545" width="100" height="80" as="geometry"/>
                </mxCell>
                <mxCell id="P72vRbyliiHvL0oEmRon-27" value="無効な名前またはパスワードです。" style="text;html=1;align=center;verticalAlign=middle;resizable=0;points=[];autosize=1;strokeColor=none;fillColor=none;fontSize=14;" parent="1" vertex="1">
                    <mxGeometry x="190" y="490" width="250" height="30" as="geometry"/>
                </mxCell>
                <mxCell id="P72vRbyliiHvL0oEmRon-28" value="エラー画面" style="shape=umlBoundary;whiteSpace=wrap;html=1;fontSize=14;" parent="1" vertex="1">
                    <mxGeometry x="140" y="680" width="100" height="80" as="geometry"/>
                </mxCell>
                <mxCell id="P72vRbyliiHvL0oEmRon-30" value="&lt;font style=&quot;font-size: 9px;&quot;&gt;名前とパスワードを入力してください。&lt;/font&gt;" style="text;html=1;align=center;verticalAlign=middle;resizable=0;points=[];autosize=1;strokeColor=none;fillColor=none;fontSize=14;rotation=0;" parent="1" vertex="1">
                    <mxGeometry x="224" y="630" width="190" height="30" as="geometry"/>
                </mxCell>
                <mxCell id="P72vRbyliiHvL0oEmRon-32" value="エラー画面" style="shape=umlBoundary;whiteSpace=wrap;html=1;fontSize=9;" parent="1" vertex="1">
                    <mxGeometry x="150" y="820" width="100" height="80" as="geometry"/>
                </mxCell>
                <mxCell id="P72vRbyliiHvL0oEmRon-34" value="ログインに失敗しました。" style="text;html=1;align=center;verticalAlign=middle;resizable=0;points=[];autosize=1;strokeColor=none;fillColor=none;fontSize=9;" parent="1" vertex="1">
                    <mxGeometry x="310" y="750" width="130" height="20" as="geometry"/>
                </mxCell>
                <mxCell id="Lo5zNJrsym4IysGLBa4M-11" value="各自の情報を入力してログインボタンを押す" style="text;html=1;align=center;verticalAlign=middle;resizable=0;points=[];autosize=1;strokeColor=none;fillColor=none;fontSize=9;" parent="1" vertex="1">
                    <mxGeometry y="200" width="200" height="20" as="geometry"/>
                </mxCell>
            </root>
        </mxGraphModel>
    </diagram>
    <diagram id="cA67yOFR9Anl4BkKegYw" name="パス忘れ">
        <mxGraphModel dx="880" dy="645" grid="1" gridSize="10" guides="1" tooltips="1" connect="1" arrows="1" fold="1" page="1" pageScale="1" pageWidth="827" pageHeight="1169" math="0" shadow="0">
            <root>
                <mxCell id="0"/>
                <mxCell id="1" parent="0"/>
                <mxCell id="RiSwPWikIOVVvHQisLI8-2" style="edgeStyle=none;html=1;entryX=-0.02;entryY=0.55;entryDx=0;entryDy=0;entryPerimeter=0;fontSize=9;" parent="1" source="MumzxncDqrrCHIsPgF55-1" target="RiSwPWikIOVVvHQisLI8-1" edge="1">
                    <mxGeometry relative="1" as="geometry"/>
                </mxCell>
                <mxCell id="RiSwPWikIOVVvHQisLI8-4" style="edgeStyle=none;html=1;entryX=-0.027;entryY=0.55;entryDx=0;entryDy=0;entryPerimeter=0;fontSize=9;" parent="1" source="MumzxncDqrrCHIsPgF55-1" target="RiSwPWikIOVVvHQisLI8-3" edge="1">
                    <mxGeometry relative="1" as="geometry"/>
                </mxCell>
                <mxCell id="2zYQqPhOSJy3_aK5qcd4-5" style="edgeStyle=none;html=1;entryX=-0.007;entryY=0.517;entryDx=0;entryDy=0;entryPerimeter=0;fontSize=9;" parent="1" source="MumzxncDqrrCHIsPgF55-1" target="2zYQqPhOSJy3_aK5qcd4-3" edge="1">
                    <mxGeometry relative="1" as="geometry"/>
                </mxCell>
                <mxCell id="MumzxncDqrrCHIsPgF55-1" value="システム管理者&lt;br&gt;" style="shape=umlActor;verticalLabelPosition=bottom;verticalAlign=top;html=1;fontSize=9;" parent="1" vertex="1">
                    <mxGeometry x="10" y="240" width="70" height="110" as="geometry"/>
                </mxCell>
                <mxCell id="q0QZkueunMjk4VKm-HQE-4" style="edgeStyle=none;html=1;entryX=0.029;entryY=0.608;entryDx=0;entryDy=0;entryPerimeter=0;fontSize=9;" parent="1" source="RiSwPWikIOVVvHQisLI8-1" target="q0QZkueunMjk4VKm-HQE-3" edge="1">
                    <mxGeometry relative="1" as="geometry"/>
                </mxCell>
                <mxCell id="RiSwPWikIOVVvHQisLI8-1" value="ログイン画面" style="shape=umlBoundary;whiteSpace=wrap;html=1;fontSize=9;" parent="1" vertex="1">
                    <mxGeometry x="250" y="100" width="100" height="80" as="geometry"/>
                </mxCell>
                <mxCell id="q0QZkueunMjk4VKm-HQE-1" style="edgeStyle=none;html=1;entryX=-0.057;entryY=0.542;entryDx=0;entryDy=0;entryPerimeter=0;fontSize=9;" parent="1" source="RiSwPWikIOVVvHQisLI8-3" target="QMcQ_S-JjF7Fbn48ktGr-1" edge="1">
                    <mxGeometry relative="1" as="geometry"/>
                </mxCell>
                <mxCell id="RiSwPWikIOVVvHQisLI8-3" value="パス忘れ画面" style="shape=umlBoundary;whiteSpace=wrap;html=1;fontSize=9;" parent="1" vertex="1">
                    <mxGeometry x="260" y="250" width="100" height="80" as="geometry"/>
                </mxCell>
                <mxCell id="RiSwPWikIOVVvHQisLI8-5" value="メールアドレスの入力、送信" style="text;html=1;align=center;verticalAlign=middle;resizable=0;points=[];autosize=1;strokeColor=none;fillColor=none;fontSize=9;" parent="1" vertex="1">
                    <mxGeometry x="105" y="260" width="140" height="20" as="geometry"/>
                </mxCell>
                <mxCell id="2zYQqPhOSJy3_aK5qcd4-13" style="edgeStyle=none;html=1;fontSize=9;" parent="1" source="QMcQ_S-JjF7Fbn48ktGr-1" target="2zYQqPhOSJy3_aK5qcd4-12" edge="1">
                    <mxGeometry relative="1" as="geometry"/>
                </mxCell>
                <mxCell id="2zYQqPhOSJy3_aK5qcd4-16" style="edgeStyle=none;html=1;fontSize=14;" parent="1" source="2zYQqPhOSJy3_aK5qcd4-22" target="2zYQqPhOSJy3_aK5qcd4-17" edge="1">
                    <mxGeometry relative="1" as="geometry"/>
                </mxCell>
                <mxCell id="E1a1hrBWk-O5WyWRCnXK-3" style="edgeStyle=none;html=1;" parent="1" source="QMcQ_S-JjF7Fbn48ktGr-1" target="E1a1hrBWk-O5WyWRCnXK-4" edge="1">
                    <mxGeometry relative="1" as="geometry">
                        <mxPoint x="468.6700000000001" y="396" as="targetPoint"/>
                    </mxGeometry>
                </mxCell>
                <mxCell id="QMcQ_S-JjF7Fbn48ktGr-1" value="&lt;div style=&quot;text-align: start;&quot;&gt;認証表示&lt;/div&gt;" style="ellipse;shape=umlControl;whiteSpace=wrap;html=1;fontSize=9;" parent="1" vertex="1">
                    <mxGeometry x="520" y="250" width="70" height="80" as="geometry"/>
                </mxCell>
                <mxCell id="q0QZkueunMjk4VKm-HQE-2" value="パスワード忘れた場合をクリック" style="text;html=1;align=center;verticalAlign=middle;resizable=0;points=[];autosize=1;strokeColor=none;fillColor=none;fontSize=9;" parent="1" vertex="1">
                    <mxGeometry x="60" y="160" width="160" height="20" as="geometry"/>
                </mxCell>
                <mxCell id="q0QZkueunMjk4VKm-HQE-5" style="edgeStyle=none;html=1;entryX=0.613;entryY=0;entryDx=0;entryDy=0;entryPerimeter=0;fontSize=9;" parent="1" source="q0QZkueunMjk4VKm-HQE-3" target="RiSwPWikIOVVvHQisLI8-3" edge="1">
                    <mxGeometry relative="1" as="geometry"/>
                </mxCell>
                <mxCell id="q0QZkueunMjk4VKm-HQE-3" value="表示" style="ellipse;shape=umlControl;whiteSpace=wrap;html=1;fontSize=9;" parent="1" vertex="1">
                    <mxGeometry x="510" y="90" width="70" height="80" as="geometry"/>
                </mxCell>
                <mxCell id="2zYQqPhOSJy3_aK5qcd4-1" value="システム&lt;br&gt;管理者" style="ellipse;shape=umlEntity;whiteSpace=wrap;html=1;" parent="1" vertex="1">
                    <mxGeometry x="740" y="255" width="80" height="80" as="geometry"/>
                </mxCell>
                <mxCell id="2zYQqPhOSJy3_aK5qcd4-2" value="" style="endArrow=classic;startArrow=classic;html=1;fontSize=9;entryX=0;entryY=0.5;entryDx=0;entryDy=0;exitX=1.01;exitY=0.567;exitDx=0;exitDy=0;exitPerimeter=0;" parent="1" source="QMcQ_S-JjF7Fbn48ktGr-1" target="2zYQqPhOSJy3_aK5qcd4-1" edge="1">
                    <mxGeometry width="50" height="50" relative="1" as="geometry">
                        <mxPoint x="580" y="350" as="sourcePoint"/>
                        <mxPoint x="630" y="300" as="targetPoint"/>
                    </mxGeometry>
                </mxCell>
                <mxCell id="2zYQqPhOSJy3_aK5qcd4-23" value="" style="edgeStyle=none;html=1;fontSize=14;startArrow=none;startFill=0;endArrow=classic;endFill=1;" parent="1" source="2zYQqPhOSJy3_aK5qcd4-3" target="2zYQqPhOSJy3_aK5qcd4-22" edge="1">
                    <mxGeometry relative="1" as="geometry"/>
                </mxCell>
                <mxCell id="2zYQqPhOSJy3_aK5qcd4-3" value="パスワード変更画面" style="shape=umlBoundary;whiteSpace=wrap;html=1;fontSize=9;" parent="1" vertex="1">
                    <mxGeometry x="240" y="460" width="100" height="80" as="geometry"/>
                </mxCell>
                <mxCell id="2zYQqPhOSJy3_aK5qcd4-6" value="各自の情報を入力して、登録を押す。" style="text;html=1;align=center;verticalAlign=middle;resizable=0;points=[];autosize=1;strokeColor=none;fillColor=none;fontSize=9;" parent="1" vertex="1">
                    <mxGeometry x="40" y="440" width="180" height="20" as="geometry"/>
                </mxCell>
                <mxCell id="2zYQqPhOSJy3_aK5qcd4-15" style="edgeStyle=none;html=1;entryX=1.018;entryY=0.401;entryDx=0;entryDy=0;entryPerimeter=0;fontSize=14;" parent="1" source="2zYQqPhOSJy3_aK5qcd4-12" target="2zYQqPhOSJy3_aK5qcd4-14" edge="1">
                    <mxGeometry relative="1" as="geometry"/>
                </mxCell>
                <mxCell id="2zYQqPhOSJy3_aK5qcd4-12" value="エラー表示" style="ellipse;shape=umlControl;whiteSpace=wrap;html=1;fontSize=9;" parent="1" vertex="1">
                    <mxGeometry x="660" y="430" width="70" height="80" as="geometry"/>
                </mxCell>
                <mxCell id="2zYQqPhOSJy3_aK5qcd4-14" value="&lt;font style=&quot;font-size: 14px;&quot;&gt;エラー表示&lt;br&gt;内容画面&lt;/font&gt;" style="shape=umlBoundary;whiteSpace=wrap;html=1;fontSize=9;" parent="1" vertex="1">
                    <mxGeometry x="810" y="470" width="100" height="80" as="geometry"/>
                </mxCell>
                <mxCell id="2zYQqPhOSJy3_aK5qcd4-17" value="ログイン画面" style="shape=umlBoundary;whiteSpace=wrap;html=1;fontSize=9;" parent="1" vertex="1">
                    <mxGeometry x="530" y="730" width="100" height="80" as="geometry"/>
                </mxCell>
                <mxCell id="2zYQqPhOSJy3_aK5qcd4-18" value="システム&lt;br&gt;管理者" style="ellipse;shape=umlEntity;whiteSpace=wrap;html=1;" parent="1" vertex="1">
                    <mxGeometry x="570" y="545" width="80" height="80" as="geometry"/>
                </mxCell>
                <mxCell id="2zYQqPhOSJy3_aK5qcd4-19" value="" style="endArrow=classic;startArrow=none;html=1;fontSize=9;startFill=0;" parent="1" source="2zYQqPhOSJy3_aK5qcd4-3" target="2zYQqPhOSJy3_aK5qcd4-20" edge="1">
                    <mxGeometry width="50" height="50" relative="1" as="geometry">
                        <mxPoint x="400.00000000000006" y="455.3599999999999" as="sourcePoint"/>
                        <mxPoint x="439.3" y="460" as="targetPoint"/>
                    </mxGeometry>
                </mxCell>
                <mxCell id="2zYQqPhOSJy3_aK5qcd4-21" style="edgeStyle=none;html=1;fontSize=14;startArrow=none;startFill=0;endArrow=classic;endFill=1;" parent="1" source="2zYQqPhOSJy3_aK5qcd4-20" target="2zYQqPhOSJy3_aK5qcd4-18" edge="1">
                    <mxGeometry relative="1" as="geometry"/>
                </mxCell>
                <mxCell id="2zYQqPhOSJy3_aK5qcd4-20" value="パスワード変更" style="ellipse;shape=umlControl;whiteSpace=wrap;html=1;fontSize=14;" parent="1" vertex="1">
                    <mxGeometry x="430" y="480" width="70" height="80" as="geometry"/>
                </mxCell>
                <mxCell id="2zYQqPhOSJy3_aK5qcd4-22" value="表示" style="ellipse;shape=umlControl;whiteSpace=wrap;html=1;fontSize=14;" parent="1" vertex="1">
                    <mxGeometry x="370" y="620" width="70" height="80" as="geometry"/>
                </mxCell>
                <mxCell id="E1a1hrBWk-O5WyWRCnXK-5" style="edgeStyle=none;html=1;" parent="1" source="E1a1hrBWk-O5WyWRCnXK-4" target="2zYQqPhOSJy3_aK5qcd4-3" edge="1">
                    <mxGeometry relative="1" as="geometry"/>
                </mxCell>
                <mxCell id="E1a1hrBWk-O5WyWRCnXK-4" value="リンク先&lt;br&gt;送信" style="ellipse;shape=umlControl;whiteSpace=wrap;html=1;" parent="1" vertex="1">
                    <mxGeometry x="410" y="370" width="70" height="80" as="geometry"/>
                </mxCell>
            </root>
        </mxGraphModel>
    </diagram>
    <diagram id="APDrmOuDCQYgS2MGJ-57" name="ログアウト">
        <mxGraphModel dx="1399" dy="419" grid="1" gridSize="10" guides="1" tooltips="1" connect="1" arrows="1" fold="1" page="1" pageScale="1" pageWidth="827" pageHeight="1169" math="0" shadow="0">
            <root>
                <mxCell id="0"/>
                <mxCell id="1" parent="0"/>
                <mxCell id="qT9hUue9NYPYddr96G_X-4" style="edgeStyle=none;html=1;entryX=-0.003;entryY=0.45;entryDx=0;entryDy=0;entryPerimeter=0;fontSize=14;startArrow=none;startFill=0;endArrow=classic;endFill=1;" parent="1" source="qT9hUue9NYPYddr96G_X-1" target="qT9hUue9NYPYddr96G_X-2" edge="1">
                    <mxGeometry relative="1" as="geometry"/>
                </mxCell>
                <mxCell id="qT9hUue9NYPYddr96G_X-1" value="システム管理者" style="shape=umlActor;verticalLabelPosition=bottom;verticalAlign=top;html=1;fontSize=14;" parent="1" vertex="1">
                    <mxGeometry x="10" y="230" width="70" height="100" as="geometry"/>
                </mxCell>
                <mxCell id="qT9hUue9NYPYddr96G_X-6" style="edgeStyle=none;html=1;fontSize=9;startArrow=none;startFill=0;endArrow=classic;endFill=1;" parent="1" source="qT9hUue9NYPYddr96G_X-2" edge="1">
                    <mxGeometry relative="1" as="geometry">
                        <mxPoint x="410" y="170" as="targetPoint"/>
                    </mxGeometry>
                </mxCell>
                <mxCell id="qT9hUue9NYPYddr96G_X-2" value="ログアウト画面" style="shape=umlBoundary;whiteSpace=wrap;html=1;fontSize=14;" parent="1" vertex="1">
                    <mxGeometry x="190" y="130" width="100" height="80" as="geometry"/>
                </mxCell>
                <mxCell id="qT9hUue9NYPYddr96G_X-13" style="edgeStyle=none;html=1;entryX=1.005;entryY=0.558;entryDx=0;entryDy=0;entryPerimeter=0;fontSize=14;startArrow=none;startFill=0;endArrow=classic;endFill=1;" parent="1" source="qT9hUue9NYPYddr96G_X-3" target="qT9hUue9NYPYddr96G_X-12" edge="1">
                    <mxGeometry relative="1" as="geometry"/>
                </mxCell>
                <mxCell id="vZLUs630GkPegECfwFVu-1" style="edgeStyle=none;html=1;fontSize=14;startArrow=none;startFill=0;endArrow=classic;endFill=1;" parent="1" source="qT9hUue9NYPYddr96G_X-3" target="vZLUs630GkPegECfwFVu-3" edge="1">
                    <mxGeometry relative="1" as="geometry">
                        <mxPoint x="452" y="420" as="targetPoint"/>
                    </mxGeometry>
                </mxCell>
                <mxCell id="qT9hUue9NYPYddr96G_X-3" value="ログアウト処理" style="ellipse;shape=umlControl;whiteSpace=wrap;html=1;fontSize=14;" parent="1" vertex="1">
                    <mxGeometry x="414" y="120" width="76" height="90" as="geometry"/>
                </mxCell>
                <mxCell id="qT9hUue9NYPYddr96G_X-5" value="&lt;font size=&quot;1&quot;&gt;ポップアップが表示される&lt;/font&gt;" style="text;html=1;align=center;verticalAlign=middle;resizable=0;points=[];autosize=1;strokeColor=none;fillColor=none;fontSize=14;" parent="1" vertex="1">
                    <mxGeometry x="50" y="200" width="140" height="30" as="geometry"/>
                </mxCell>
                <mxCell id="qT9hUue9NYPYddr96G_X-15" style="edgeStyle=none;html=1;entryX=1.03;entryY=0.525;entryDx=0;entryDy=0;entryPerimeter=0;fontSize=14;startArrow=none;startFill=0;endArrow=classic;endFill=1;" parent="1" source="qT9hUue9NYPYddr96G_X-12" target="qT9hUue9NYPYddr96G_X-14" edge="1">
                    <mxGeometry relative="1" as="geometry"/>
                </mxCell>
                <mxCell id="qT9hUue9NYPYddr96G_X-12" value="&lt;font style=&quot;font-size: 14px;&quot;&gt;表示&lt;/font&gt;" style="ellipse;shape=umlControl;whiteSpace=wrap;html=1;fontSize=9;" parent="1" vertex="1">
                    <mxGeometry x="330" y="270" width="70" height="80" as="geometry"/>
                </mxCell>
                <mxCell id="qT9hUue9NYPYddr96G_X-14" value="ログイン&lt;br&gt;画面" style="shape=umlBoundary;whiteSpace=wrap;html=1;fontSize=14;" parent="1" vertex="1">
                    <mxGeometry x="170" y="280" width="100" height="80" as="geometry"/>
                </mxCell>
                <mxCell id="vZLUs630GkPegECfwFVu-5" style="edgeStyle=none;html=1;entryX=0.997;entryY=0.567;entryDx=0;entryDy=0;entryPerimeter=0;fontSize=14;startArrow=none;startFill=0;endArrow=classic;endFill=1;" parent="1" source="vZLUs630GkPegECfwFVu-3" target="vZLUs630GkPegECfwFVu-4" edge="1">
                    <mxGeometry relative="1" as="geometry"/>
                </mxCell>
                <mxCell id="vZLUs630GkPegECfwFVu-3" value="エラー&lt;br&gt;処理" style="ellipse;shape=umlControl;whiteSpace=wrap;html=1;fontSize=14;" parent="1" vertex="1">
                    <mxGeometry x="390" y="370" width="70" height="80" as="geometry"/>
                </mxCell>
                <mxCell id="vZLUs630GkPegECfwFVu-4" value="ログアウト失敗画面" style="shape=umlBoundary;whiteSpace=wrap;html=1;fontSize=14;" parent="1" vertex="1">
                    <mxGeometry x="175" y="400" width="100" height="80" as="geometry"/>
                </mxCell>
            </root>
        </mxGraphModel>
    </diagram>
    <diagram id="nvmwMsvo3WfwLRJZODGf" name="ユーザー登録情報確認">
        <mxGraphModel dx="1406" dy="524" grid="1" gridSize="10" guides="1" tooltips="1" connect="1" arrows="1" fold="1" page="1" pageScale="1" pageWidth="827" pageHeight="1169" math="0" shadow="0">
            <root>
                <mxCell id="0"/>
                <mxCell id="1" parent="0"/>
                <mxCell id="2OwhBHev8sDwJyNuz14D-3" style="edgeStyle=none;html=1;entryX=-0.043;entryY=0.492;entryDx=0;entryDy=0;entryPerimeter=0;fontSize=14;startArrow=none;startFill=0;endArrow=classic;endFill=1;" parent="1" source="2OwhBHev8sDwJyNuz14D-1" target="2OwhBHev8sDwJyNuz14D-2" edge="1">
                    <mxGeometry relative="1" as="geometry"/>
                </mxCell>
                <mxCell id="2OwhBHev8sDwJyNuz14D-1" value="システム管理者" style="shape=umlActor;verticalLabelPosition=bottom;verticalAlign=top;html=1;outlineConnect=0;fontSize=14;" parent="1" vertex="1">
                    <mxGeometry x="10" y="150" width="60" height="130" as="geometry"/>
                </mxCell>
                <mxCell id="2OwhBHev8sDwJyNuz14D-2" value="ユーザー&lt;br&gt;一覧画面" style="shape=umlBoundary;whiteSpace=wrap;html=1;fontSize=14;" parent="1" vertex="1">
                    <mxGeometry x="260" y="60" width="100" height="80" as="geometry"/>
                </mxCell>
                <mxCell id="2OwhBHev8sDwJyNuz14D-12" style="edgeStyle=none;html=1;fontSize=10;startArrow=none;startFill=0;endArrow=classic;endFill=1;" parent="1" source="2OwhBHev8sDwJyNuz14D-5" target="2OwhBHev8sDwJyNuz14D-11" edge="1">
                    <mxGeometry relative="1" as="geometry"/>
                </mxCell>
                <mxCell id="2OwhBHev8sDwJyNuz14D-5" value="情報の取得" style="ellipse;shape=umlControl;whiteSpace=wrap;html=1;fontSize=10;" parent="1" vertex="1">
                    <mxGeometry x="490" y="60" width="70" height="80" as="geometry"/>
                </mxCell>
                <mxCell id="2OwhBHev8sDwJyNuz14D-7" value="ユーザー" style="ellipse;shape=umlEntity;whiteSpace=wrap;html=1;fontSize=10;" parent="1" vertex="1">
                    <mxGeometry x="710" y="60" width="80" height="80" as="geometry"/>
                </mxCell>
                <mxCell id="2OwhBHev8sDwJyNuz14D-9" value="" style="endArrow=classic;startArrow=classic;html=1;fontSize=10;entryX=0;entryY=0.5;entryDx=0;entryDy=0;" parent="1" source="2OwhBHev8sDwJyNuz14D-5" target="2OwhBHev8sDwJyNuz14D-7" edge="1">
                    <mxGeometry width="50" height="50" relative="1" as="geometry">
                        <mxPoint x="630" y="240" as="sourcePoint"/>
                        <mxPoint x="680" y="190" as="targetPoint"/>
                    </mxGeometry>
                </mxCell>
                <mxCell id="2OwhBHev8sDwJyNuz14D-10" value="" style="endArrow=classic;startArrow=classic;html=1;fontSize=10;entryX=-0.005;entryY=0.542;entryDx=0;entryDy=0;entryPerimeter=0;exitX=1.023;exitY=0.55;exitDx=0;exitDy=0;exitPerimeter=0;" parent="1" source="2OwhBHev8sDwJyNuz14D-2" target="2OwhBHev8sDwJyNuz14D-5" edge="1">
                    <mxGeometry width="50" height="50" relative="1" as="geometry">
                        <mxPoint x="380" y="240" as="sourcePoint"/>
                        <mxPoint x="430" y="190" as="targetPoint"/>
                    </mxGeometry>
                </mxCell>
                <mxCell id="2OwhBHev8sDwJyNuz14D-14" style="edgeStyle=none;html=1;entryX=1.037;entryY=0.5;entryDx=0;entryDy=0;entryPerimeter=0;fontSize=10;startArrow=none;startFill=0;endArrow=classic;endFill=1;" parent="1" source="2OwhBHev8sDwJyNuz14D-11" target="2OwhBHev8sDwJyNuz14D-13" edge="1">
                    <mxGeometry relative="1" as="geometry"/>
                </mxCell>
                <mxCell id="2OwhBHev8sDwJyNuz14D-20" style="edgeStyle=none;html=1;entryX=0.51;entryY=0.042;entryDx=0;entryDy=0;entryPerimeter=0;fontSize=10;startArrow=none;startFill=0;endArrow=classic;endFill=1;" parent="1" source="2OwhBHev8sDwJyNuz14D-11" target="2OwhBHev8sDwJyNuz14D-19" edge="1">
                    <mxGeometry relative="1" as="geometry"/>
                </mxCell>
                <mxCell id="2OwhBHev8sDwJyNuz14D-11" value="情報詳細表示" style="ellipse;shape=umlControl;whiteSpace=wrap;html=1;fontSize=10;" parent="1" vertex="1">
                    <mxGeometry x="430" y="190" width="70" height="80" as="geometry"/>
                </mxCell>
                <mxCell id="2OwhBHev8sDwJyNuz14D-13" value="ユーザー情報&lt;br&gt;確認詳細画面" style="shape=umlBoundary;whiteSpace=wrap;html=1;fontSize=10;" parent="1" vertex="1">
                    <mxGeometry x="220" y="230" width="100" height="80" as="geometry"/>
                </mxCell>
                <mxCell id="2OwhBHev8sDwJyNuz14D-22" style="edgeStyle=none;html=1;entryX=1.023;entryY=0.517;entryDx=0;entryDy=0;entryPerimeter=0;fontSize=10;startArrow=none;startFill=0;endArrow=classic;endFill=1;" parent="1" source="2OwhBHev8sDwJyNuz14D-19" target="2OwhBHev8sDwJyNuz14D-21" edge="1">
                    <mxGeometry relative="1" as="geometry"/>
                </mxCell>
                <mxCell id="2OwhBHev8sDwJyNuz14D-24" style="edgeStyle=none;html=1;entryX=0.488;entryY=0.059;entryDx=0;entryDy=0;entryPerimeter=0;fontSize=10;startArrow=none;startFill=0;endArrow=classic;endFill=1;" parent="1" source="2OwhBHev8sDwJyNuz14D-19" target="2OwhBHev8sDwJyNuz14D-23" edge="1">
                    <mxGeometry relative="1" as="geometry"/>
                </mxCell>
                <mxCell id="2OwhBHev8sDwJyNuz14D-19" value="詳細取得失敗表示&lt;br&gt;" style="ellipse;shape=umlControl;whiteSpace=wrap;html=1;fontSize=10;" parent="1" vertex="1">
                    <mxGeometry x="420" y="320" width="70" height="80" as="geometry"/>
                </mxCell>
                <mxCell id="2OwhBHev8sDwJyNuz14D-21" value="詳細表示失敗画面" style="shape=umlBoundary;whiteSpace=wrap;html=1;fontSize=10;" parent="1" vertex="1">
                    <mxGeometry x="220" y="380" width="100" height="80" as="geometry"/>
                </mxCell>
                <mxCell id="2OwhBHev8sDwJyNuz14D-26" style="edgeStyle=none;html=1;entryX=1.013;entryY=0.475;entryDx=0;entryDy=0;entryPerimeter=0;fontSize=10;startArrow=none;startFill=0;endArrow=classic;endFill=1;" parent="1" source="2OwhBHev8sDwJyNuz14D-23" target="2OwhBHev8sDwJyNuz14D-25" edge="1">
                    <mxGeometry relative="1" as="geometry"/>
                </mxCell>
                <mxCell id="2OwhBHev8sDwJyNuz14D-23" value="ユーザー詳細失敗表示" style="ellipse;shape=umlControl;whiteSpace=wrap;html=1;fontSize=10;" parent="1" vertex="1">
                    <mxGeometry x="420" y="480" width="70" height="80" as="geometry"/>
                </mxCell>
                <mxCell id="2OwhBHev8sDwJyNuz14D-25" value="ユーザー選択表示失敗画面" style="shape=umlBoundary;whiteSpace=wrap;html=1;fontSize=10;" parent="1" vertex="1">
                    <mxGeometry x="220" y="570" width="100" height="80" as="geometry"/>
                </mxCell>
                <mxCell id="rkJxTzPNqQ1IbLJDLVaX-2" value="ユーザーを選択する" style="text;html=1;align=center;verticalAlign=middle;resizable=0;points=[];autosize=1;strokeColor=none;fillColor=none;fontSize=10;" parent="1" vertex="1">
                    <mxGeometry x="100" y="110" width="110" height="30" as="geometry"/>
                </mxCell>
            </root>
        </mxGraphModel>
    </diagram>
    <diagram id="rO8PL6kykNN0rGJrDtcg" name="ユーザー登録情報削除">
        <mxGraphModel dx="1725" dy="762" grid="1" gridSize="10" guides="1" tooltips="1" connect="1" arrows="1" fold="1" page="1" pageScale="1" pageWidth="827" pageHeight="1169" math="0" shadow="0">
            <root>
                <mxCell id="0"/>
                <mxCell id="1" parent="0"/>
                <mxCell id="r5N7Shbcl1KLHTW5RaJ6-2" style="edgeStyle=none;html=1;entryX=0.005;entryY=0.497;entryDx=0;entryDy=0;entryPerimeter=0;fontSize=10;startArrow=none;startFill=0;endArrow=classic;endFill=1;" parent="1" source="r5N7Shbcl1KLHTW5RaJ6-3" target="r5N7Shbcl1KLHTW5RaJ6-15" edge="1">
                    <mxGeometry relative="1" as="geometry"/>
                </mxCell>
                <mxCell id="zDCRPXhgbrQriVp6kmGj-12" style="edgeStyle=none;html=1;entryX=-0.012;entryY=0.497;entryDx=0;entryDy=0;entryPerimeter=0;fontSize=10;startArrow=none;startFill=0;endArrow=classic;endFill=1;" parent="1" source="r5N7Shbcl1KLHTW5RaJ6-3" target="zDCRPXhgbrQriVp6kmGj-5" edge="1">
                    <mxGeometry relative="1" as="geometry"/>
                </mxCell>
                <mxCell id="r5N7Shbcl1KLHTW5RaJ6-3" value="システム管理者" style="shape=umlActor;verticalLabelPosition=bottom;verticalAlign=top;html=1;outlineConnect=0;fontSize=14;" parent="1" vertex="1">
                    <mxGeometry x="10" y="150" width="60" height="130" as="geometry"/>
                </mxCell>
                <mxCell id="r5N7Shbcl1KLHTW5RaJ6-6" style="edgeStyle=none;html=1;fontSize=10;startArrow=none;startFill=0;endArrow=classic;endFill=1;" parent="1" target="r5N7Shbcl1KLHTW5RaJ6-8" edge="1">
                    <mxGeometry relative="1" as="geometry">
                        <mxPoint x="310" y="120" as="targetPoint"/>
                        <mxPoint x="300" y="230" as="sourcePoint"/>
                    </mxGeometry>
                </mxCell>
                <mxCell id="r5N7Shbcl1KLHTW5RaJ6-8" value="情報の取得" style="ellipse;shape=umlControl;whiteSpace=wrap;html=1;fontSize=10;" parent="1" vertex="1">
                    <mxGeometry x="470" y="130" width="70" height="80" as="geometry"/>
                </mxCell>
                <mxCell id="r5N7Shbcl1KLHTW5RaJ6-9" value="ユーザー" style="ellipse;shape=umlEntity;whiteSpace=wrap;html=1;fontSize=10;" parent="1" vertex="1">
                    <mxGeometry x="660" y="130" width="80" height="80" as="geometry"/>
                </mxCell>
                <mxCell id="r5N7Shbcl1KLHTW5RaJ6-10" value="" style="endArrow=classic;startArrow=classic;html=1;fontSize=10;entryX=0;entryY=0.5;entryDx=0;entryDy=0;" parent="1" source="r5N7Shbcl1KLHTW5RaJ6-8" target="r5N7Shbcl1KLHTW5RaJ6-9" edge="1">
                    <mxGeometry width="50" height="50" relative="1" as="geometry">
                        <mxPoint x="630" y="240" as="sourcePoint"/>
                        <mxPoint x="520" y="290" as="targetPoint"/>
                    </mxGeometry>
                </mxCell>
                <mxCell id="zDCRPXhgbrQriVp6kmGj-3" style="edgeStyle=none;html=1;fontSize=10;startArrow=none;startFill=0;endArrow=classic;endFill=1;" parent="1" source="r5N7Shbcl1KLHTW5RaJ6-15" target="zDCRPXhgbrQriVp6kmGj-2" edge="1">
                    <mxGeometry relative="1" as="geometry"/>
                </mxCell>
                <mxCell id="r5N7Shbcl1KLHTW5RaJ6-15" value="ユーザー情報&lt;br&gt;確認詳細画面" style="shape=umlBoundary;whiteSpace=wrap;html=1;fontSize=10;" parent="1" vertex="1">
                    <mxGeometry x="220" y="190" width="100" height="80" as="geometry"/>
                </mxCell>
                <mxCell id="zDCRPXhgbrQriVp6kmGj-1" value="削除ボタンを押す" style="text;html=1;align=center;verticalAlign=middle;resizable=0;points=[];autosize=1;strokeColor=none;fillColor=none;fontSize=10;" parent="1" vertex="1">
                    <mxGeometry x="110" y="225" width="100" height="30" as="geometry"/>
                </mxCell>
                <mxCell id="zDCRPXhgbrQriVp6kmGj-7" style="edgeStyle=none;html=1;fontSize=10;startArrow=none;startFill=0;endArrow=classic;endFill=1;" parent="1" source="zDCRPXhgbrQriVp6kmGj-2" target="zDCRPXhgbrQriVp6kmGj-5" edge="1">
                    <mxGeometry relative="1" as="geometry"/>
                </mxCell>
                <mxCell id="iZNDTyxENP3RR_u3nXcK-8" style="edgeStyle=none;html=1;fontSize=9;" parent="1" source="zDCRPXhgbrQriVp6kmGj-2" target="iZNDTyxENP3RR_u3nXcK-7" edge="1">
                    <mxGeometry relative="1" as="geometry"/>
                </mxCell>
                <mxCell id="zDCRPXhgbrQriVp6kmGj-2" value="ポップアップの表示&lt;br&gt;" style="ellipse;shape=umlControl;whiteSpace=wrap;html=1;fontSize=10;" parent="1" vertex="1">
                    <mxGeometry x="210" y="315" width="70" height="80" as="geometry"/>
                </mxCell>
                <mxCell id="zDCRPXhgbrQriVp6kmGj-10" style="edgeStyle=none;html=1;fontSize=10;startArrow=none;startFill=0;endArrow=classic;endFill=1;" parent="1" source="zDCRPXhgbrQriVp6kmGj-5" target="zDCRPXhgbrQriVp6kmGj-9" edge="1">
                    <mxGeometry relative="1" as="geometry"/>
                </mxCell>
                <mxCell id="zDCRPXhgbrQriVp6kmGj-5" value="ユーザー情報&lt;br&gt;確認詳細画面" style="shape=umlBoundary;whiteSpace=wrap;html=1;fontSize=10;" parent="1" vertex="1">
                    <mxGeometry x="180" y="460" width="100" height="80" as="geometry"/>
                </mxCell>
                <mxCell id="zDCRPXhgbrQriVp6kmGj-6" value="ユーザー一覧画面" style="shape=umlBoundary;whiteSpace=wrap;html=1;fontSize=10;" parent="1" vertex="1">
                    <mxGeometry x="140" y="584.5" width="100" height="80" as="geometry"/>
                </mxCell>
                <mxCell id="iZNDTyxENP3RR_u3nXcK-2" style="edgeStyle=none;html=1;fontSize=9;" parent="1" source="zDCRPXhgbrQriVp6kmGj-9" target="iZNDTyxENP3RR_u3nXcK-1" edge="1">
                    <mxGeometry relative="1" as="geometry"/>
                </mxCell>
                <mxCell id="yQXOIOgsGIQ6IeDcVqMK-1" style="edgeStyle=none;html=1;" parent="1" source="zDCRPXhgbrQriVp6kmGj-9" target="An2BJNmNQpfHeoiwNKd--1" edge="1">
                    <mxGeometry relative="1" as="geometry"/>
                </mxCell>
                <mxCell id="zDCRPXhgbrQriVp6kmGj-9" value="情報の取得" style="ellipse;shape=umlControl;whiteSpace=wrap;html=1;fontSize=10;" parent="1" vertex="1">
                    <mxGeometry x="370" y="460" width="70" height="80" as="geometry"/>
                </mxCell>
                <mxCell id="zDCRPXhgbrQriVp6kmGj-13" value="&lt;font style=&quot;font-size: 9px;&quot;&gt;削除のポップアップを選択する&lt;/font&gt;" style="text;html=1;align=center;verticalAlign=middle;resizable=0;points=[];autosize=1;strokeColor=none;fillColor=none;fontSize=10;" parent="1" vertex="1">
                    <mxGeometry x="25" y="365" width="150" height="30" as="geometry"/>
                </mxCell>
                <mxCell id="iZNDTyxENP3RR_u3nXcK-4" style="edgeStyle=none;html=1;entryX=1.037;entryY=0.542;entryDx=0;entryDy=0;entryPerimeter=0;fontSize=9;" parent="1" source="iZNDTyxENP3RR_u3nXcK-1" target="iZNDTyxENP3RR_u3nXcK-3" edge="1">
                    <mxGeometry relative="1" as="geometry"/>
                </mxCell>
                <mxCell id="iZNDTyxENP3RR_u3nXcK-1" value="エラー表示" style="ellipse;shape=umlControl;whiteSpace=wrap;html=1;fontSize=9;" parent="1" vertex="1">
                    <mxGeometry x="390" y="730" width="70" height="80" as="geometry"/>
                </mxCell>
                <mxCell id="iZNDTyxENP3RR_u3nXcK-3" value="削除失敗画面" style="shape=umlBoundary;whiteSpace=wrap;html=1;fontSize=9;" parent="1" vertex="1">
                    <mxGeometry x="190" y="760" width="100" height="80" as="geometry"/>
                </mxCell>
                <mxCell id="iZNDTyxENP3RR_u3nXcK-6" value="ポップアップの表示に失敗画面&lt;br&gt;" style="shape=umlBoundary;whiteSpace=wrap;html=1;fontSize=9;" parent="1" vertex="1">
                    <mxGeometry x="510" y="315" width="100" height="80" as="geometry"/>
                </mxCell>
                <mxCell id="iZNDTyxENP3RR_u3nXcK-9" style="edgeStyle=none;html=1;fontSize=9;" parent="1" source="iZNDTyxENP3RR_u3nXcK-7" target="iZNDTyxENP3RR_u3nXcK-6" edge="1">
                    <mxGeometry relative="1" as="geometry"/>
                </mxCell>
                <mxCell id="iZNDTyxENP3RR_u3nXcK-7" value="エラー表示" style="ellipse;shape=umlControl;whiteSpace=wrap;html=1;fontSize=9;" parent="1" vertex="1">
                    <mxGeometry x="360" y="320" width="70" height="80" as="geometry"/>
                </mxCell>
                <mxCell id="MPdy-3g6xBVHb8bykbVX-1" value="ユーザー" style="ellipse;shape=umlEntity;whiteSpace=wrap;html=1;fontSize=10;" parent="1" vertex="1">
                    <mxGeometry x="530" y="460" width="80" height="80" as="geometry"/>
                </mxCell>
                <mxCell id="76zUDbvMy9Qoh25P5Jjk-1" value="" style="endArrow=classic;startArrow=classic;html=1;" parent="1" source="zDCRPXhgbrQriVp6kmGj-9" target="MPdy-3g6xBVHb8bykbVX-1" edge="1">
                    <mxGeometry width="50" height="50" relative="1" as="geometry">
                        <mxPoint x="470" y="560" as="sourcePoint"/>
                        <mxPoint x="520" y="510" as="targetPoint"/>
                    </mxGeometry>
                </mxCell>
                <mxCell id="An2BJNmNQpfHeoiwNKd--3" style="edgeStyle=none;html=1;" edge="1" parent="1" source="An2BJNmNQpfHeoiwNKd--1" target="zDCRPXhgbrQriVp6kmGj-6">
                    <mxGeometry relative="1" as="geometry"/>
                </mxCell>
                <mxCell id="An2BJNmNQpfHeoiwNKd--1" value="表示" style="ellipse;shape=umlControl;whiteSpace=wrap;html=1;fontSize=9;" vertex="1" parent="1">
                    <mxGeometry x="280" y="580" width="70" height="80" as="geometry"/>
                </mxCell>
                <mxCell id="An2BJNmNQpfHeoiwNKd--4" value="削除エラー" style="text;html=1;align=center;verticalAlign=middle;resizable=0;points=[];autosize=1;strokeColor=none;fillColor=none;" vertex="1" parent="1">
                    <mxGeometry x="420" y="680" width="80" height="30" as="geometry"/>
                </mxCell>
                <mxCell id="An2BJNmNQpfHeoiwNKd--5" value="削除成功" style="text;html=1;align=center;verticalAlign=middle;resizable=0;points=[];autosize=1;strokeColor=none;fillColor=none;" vertex="1" parent="1">
                    <mxGeometry x="290" y="540" width="70" height="30" as="geometry"/>
                </mxCell>
            </root>
        </mxGraphModel>
    </diagram>
    <diagram id="QluII1egPpJgD8w8n8lw" name="ユーザーの異常確認">
        <mxGraphModel dx="488" dy="419" grid="1" gridSize="10" guides="1" tooltips="1" connect="1" arrows="1" fold="1" page="1" pageScale="1" pageWidth="827" pageHeight="1169" math="0" shadow="0">
            <root>
                <mxCell id="0"/>
                <mxCell id="1" parent="0"/>
                <mxCell id="OIgldxzS0vwM-R7prCQB-1" style="edgeStyle=none;html=1;entryX=0;entryY=0.5;entryDx=0;entryDy=0;entryPerimeter=0;fontSize=9;" parent="1" source="hT4o-oXCmMNn3Aa5MKou-1" target="MdC7Zp576Ep73RCey9Vy-1" edge="1">
                    <mxGeometry relative="1" as="geometry"/>
                </mxCell>
                <mxCell id="UflS1kox04uuwwd-TKTZ-2" style="edgeStyle=none;html=1;" parent="1" source="hT4o-oXCmMNn3Aa5MKou-1" target="ref2c8r92ynnTUp9qgvS-2" edge="1">
                    <mxGeometry relative="1" as="geometry">
                        <mxPoint x="170" y="240" as="targetPoint"/>
                    </mxGeometry>
                </mxCell>
                <mxCell id="hT4o-oXCmMNn3Aa5MKou-1" value="システム管理者" style="shape=umlActor;verticalLabelPosition=bottom;verticalAlign=top;html=1;fontSize=9;" parent="1" vertex="1">
                    <mxGeometry x="10" y="150" width="50" height="120" as="geometry"/>
                </mxCell>
                <mxCell id="MdC7Zp576Ep73RCey9Vy-1" value="状態確認画面" style="shape=umlBoundary;whiteSpace=wrap;html=1;fontSize=9;" parent="1" vertex="1">
                    <mxGeometry x="170" y="60" width="100" height="80" as="geometry"/>
                </mxCell>
                <mxCell id="rtSHfJIYM6hGgyxWR8ze-9" style="edgeStyle=none;html=1;fontSize=9;entryX=1.006;entryY=0.546;entryDx=0;entryDy=0;entryPerimeter=0;" parent="1" source="OIgldxzS0vwM-R7prCQB-2" target="MdC7Zp576Ep73RCey9Vy-1" edge="1">
                    <mxGeometry relative="1" as="geometry">
                        <mxPoint x="265" y="186.08695652173913" as="targetPoint"/>
                    </mxGeometry>
                </mxCell>
                <mxCell id="OIgldxzS0vwM-R7prCQB-2" value="位置情報取得" style="ellipse;shape=umlControl;whiteSpace=wrap;html=1;fontSize=9;" parent="1" vertex="1">
                    <mxGeometry x="420" y="120" width="70" height="80" as="geometry"/>
                </mxCell>
                <mxCell id="OIgldxzS0vwM-R7prCQB-3" value="位置情報履歴" style="ellipse;shape=umlEntity;whiteSpace=wrap;html=1;fontSize=9;" parent="1" vertex="1">
                    <mxGeometry x="640" y="120" width="80" height="80" as="geometry"/>
                </mxCell>
                <mxCell id="OIgldxzS0vwM-R7prCQB-4" value="" style="endArrow=classic;startArrow=classic;html=1;fontSize=9;entryX=-0.034;entryY=0.61;entryDx=0;entryDy=0;entryPerimeter=0;exitX=0.989;exitY=0.612;exitDx=0;exitDy=0;exitPerimeter=0;" parent="1" source="OIgldxzS0vwM-R7prCQB-2" target="OIgldxzS0vwM-R7prCQB-3" edge="1">
                    <mxGeometry width="50" height="50" relative="1" as="geometry">
                        <mxPoint x="560" y="140" as="sourcePoint"/>
                        <mxPoint x="610" y="90" as="targetPoint"/>
                    </mxGeometry>
                </mxCell>
                <mxCell id="rtSHfJIYM6hGgyxWR8ze-10" style="edgeStyle=none;html=1;fontSize=9;" parent="1" source="rtSHfJIYM6hGgyxWR8ze-2" target="MdC7Zp576Ep73RCey9Vy-1" edge="1">
                    <mxGeometry relative="1" as="geometry">
                        <mxPoint x="265.5999999999999" y="199.51999999999998" as="targetPoint"/>
                    </mxGeometry>
                </mxCell>
                <mxCell id="rtSHfJIYM6hGgyxWR8ze-2" value="ユーザー取得" style="ellipse;shape=umlControl;whiteSpace=wrap;html=1;fontSize=9;" parent="1" vertex="1">
                    <mxGeometry x="414" y="10" width="70" height="80" as="geometry"/>
                </mxCell>
                <mxCell id="rtSHfJIYM6hGgyxWR8ze-3" value="ユーザー" style="ellipse;shape=umlEntity;whiteSpace=wrap;html=1;fontSize=9;" parent="1" vertex="1">
                    <mxGeometry x="640" y="20" width="80" height="80" as="geometry"/>
                </mxCell>
                <mxCell id="rtSHfJIYM6hGgyxWR8ze-5" value="" style="endArrow=classic;startArrow=classic;html=1;fontSize=9;entryX=0;entryY=0.5;entryDx=0;entryDy=0;exitX=1.011;exitY=0.61;exitDx=0;exitDy=0;exitPerimeter=0;" parent="1" source="rtSHfJIYM6hGgyxWR8ze-2" target="rtSHfJIYM6hGgyxWR8ze-3" edge="1">
                    <mxGeometry width="50" height="50" relative="1" as="geometry">
                        <mxPoint x="480" y="219.57000000000005" as="sourcePoint"/>
                        <mxPoint x="628.0500000000002" y="219.41000000000008" as="targetPoint"/>
                    </mxGeometry>
                </mxCell>
                <mxCell id="rtSHfJIYM6hGgyxWR8ze-13" value="状態確認画面を押す" style="text;html=1;align=center;verticalAlign=middle;resizable=0;points=[];autosize=1;strokeColor=none;fillColor=none;fontSize=9;" parent="1" vertex="1">
                    <mxGeometry x="50" y="110" width="100" height="20" as="geometry"/>
                </mxCell>
                <mxCell id="ref2c8r92ynnTUp9qgvS-1" style="edgeStyle=none;html=1;fontSize=9;entryX=-0.033;entryY=0.513;entryDx=0;entryDy=0;entryPerimeter=0;" parent="1" source="ref2c8r92ynnTUp9qgvS-2" target="ref2c8r92ynnTUp9qgvS-7" edge="1">
                    <mxGeometry relative="1" as="geometry"/>
                </mxCell>
                <mxCell id="ref2c8r92ynnTUp9qgvS-2" value="チャット画面" style="shape=umlBoundary;whiteSpace=wrap;html=1;fontSize=9;" parent="1" vertex="1">
                    <mxGeometry x="218" y="240" width="100" height="80" as="geometry"/>
                </mxCell>
                <mxCell id="ref2c8r92ynnTUp9qgvS-3" value="チャットを押す" style="text;html=1;align=center;verticalAlign=middle;resizable=0;points=[];autosize=1;strokeColor=none;fillColor=none;fontSize=9;" parent="1" vertex="1">
                    <mxGeometry x="120" y="230" width="90" height="20" as="geometry"/>
                </mxCell>
                <mxCell id="KSpn4DZLzCN8qSampa5V-4" style="edgeStyle=none;html=1;" parent="1" source="ref2c8r92ynnTUp9qgvS-4" target="zJAYe9V-qBqVi4taIGsb-1" edge="1">
                    <mxGeometry relative="1" as="geometry">
                        <mxPoint x="310" y="411.1111111111111" as="targetPoint"/>
                    </mxGeometry>
                </mxCell>
                <mxCell id="ref2c8r92ynnTUp9qgvS-4" value="チャット&lt;br&gt;取得" style="ellipse;shape=umlControl;whiteSpace=wrap;html=1;fontSize=9;" parent="1" vertex="1">
                    <mxGeometry x="450" y="340" width="70" height="80" as="geometry"/>
                </mxCell>
                <mxCell id="ref2c8r92ynnTUp9qgvS-5" value="チャット&lt;br&gt;セッション" style="ellipse;shape=umlEntity;whiteSpace=wrap;html=1;fontSize=9;" parent="1" vertex="1">
                    <mxGeometry x="640" y="340" width="80" height="80" as="geometry"/>
                </mxCell>
                <mxCell id="ref2c8r92ynnTUp9qgvS-6" value="" style="endArrow=classic;startArrow=classic;html=1;fontSize=9;exitX=1.024;exitY=0.517;exitDx=0;exitDy=0;exitPerimeter=0;" parent="1" source="ref2c8r92ynnTUp9qgvS-4" target="ref2c8r92ynnTUp9qgvS-5" edge="1">
                    <mxGeometry width="50" height="50" relative="1" as="geometry">
                        <mxPoint x="580" y="480" as="sourcePoint"/>
                        <mxPoint x="630" y="430" as="targetPoint"/>
                    </mxGeometry>
                </mxCell>
                <mxCell id="KSpn4DZLzCN8qSampa5V-3" style="edgeStyle=none;html=1;" parent="1" source="ref2c8r92ynnTUp9qgvS-7" target="zJAYe9V-qBqVi4taIGsb-1" edge="1">
                    <mxGeometry relative="1" as="geometry">
                        <mxPoint x="310" y="387" as="targetPoint"/>
                    </mxGeometry>
                </mxCell>
                <mxCell id="ref2c8r92ynnTUp9qgvS-7" value="ユーザーの取得" style="ellipse;shape=umlControl;whiteSpace=wrap;html=1;fontSize=9;" parent="1" vertex="1">
                    <mxGeometry x="440" y="240" width="70" height="80" as="geometry"/>
                </mxCell>
                <mxCell id="ref2c8r92ynnTUp9qgvS-8" value="ユーザー" style="ellipse;shape=umlEntity;whiteSpace=wrap;html=1;fontSize=9;" parent="1" vertex="1">
                    <mxGeometry x="640" y="240" width="80" height="80" as="geometry"/>
                </mxCell>
                <mxCell id="ref2c8r92ynnTUp9qgvS-9" value="" style="endArrow=classic;startArrow=classic;html=1;fontSize=9;entryX=0;entryY=0.5;entryDx=0;entryDy=0;" parent="1" source="ref2c8r92ynnTUp9qgvS-7" target="ref2c8r92ynnTUp9qgvS-8" edge="1">
                    <mxGeometry width="50" height="50" relative="1" as="geometry">
                        <mxPoint x="541.6799999999998" y="311.3599999999999" as="sourcePoint"/>
                        <mxPoint x="630.0013659569422" y="310.33056722349625" as="targetPoint"/>
                    </mxGeometry>
                </mxCell>
                <mxCell id="zJAYe9V-qBqVi4taIGsb-1" value="ユーザー&lt;br&gt;チャット画面" style="shape=umlBoundary;whiteSpace=wrap;html=1;fontSize=9;" parent="1" vertex="1">
                    <mxGeometry x="240" y="340" width="100" height="80" as="geometry"/>
                </mxCell>
                <mxCell id="ZfiwCKzkUK7DSMpqp3ag-1" style="edgeStyle=none;html=1;fontSize=9;entryX=-0.047;entryY=0.475;entryDx=0;entryDy=0;entryPerimeter=0;" parent="1" source="hT4o-oXCmMNn3Aa5MKou-1" target="zJAYe9V-qBqVi4taIGsb-1" edge="1">
                    <mxGeometry relative="1" as="geometry">
                        <mxPoint x="50" y="505.44169611307416" as="sourcePoint"/>
                        <mxPoint x="271.5999999999999" y="470" as="targetPoint"/>
                    </mxGeometry>
                </mxCell>
                <mxCell id="ZfiwCKzkUK7DSMpqp3ag-2" style="edgeStyle=none;html=1;fontSize=9;" parent="1" source="zJAYe9V-qBqVi4taIGsb-1" target="URQET4hBTQHEzSVSLaP8-1" edge="1">
                    <mxGeometry relative="1" as="geometry">
                        <mxPoint x="509.6500000000001" y="512.0399999999997" as="targetPoint"/>
                        <mxPoint x="358" y="510" as="sourcePoint"/>
                    </mxGeometry>
                </mxCell>
                <mxCell id="ZfiwCKzkUK7DSMpqp3ag-4" value="ユーザーの選択をする、内容を書き送信" style="text;html=1;align=center;verticalAlign=middle;resizable=0;points=[];autosize=1;strokeColor=none;fillColor=none;fontSize=9;" parent="1" vertex="1">
                    <mxGeometry x="28" y="340" width="190" height="20" as="geometry"/>
                </mxCell>
                <mxCell id="ZfiwCKzkUK7DSMpqp3ag-5" value="チャット&lt;br&gt;セッション" style="ellipse;shape=umlEntity;whiteSpace=wrap;html=1;fontSize=9;" parent="1" vertex="1">
                    <mxGeometry x="640" y="430" width="80" height="80" as="geometry"/>
                </mxCell>
                <mxCell id="ZfiwCKzkUK7DSMpqp3ag-6" value="" style="endArrow=classic;startArrow=classic;html=1;fontSize=9;" parent="1" source="URQET4hBTQHEzSVSLaP8-1" target="ZfiwCKzkUK7DSMpqp3ag-5" edge="1">
                    <mxGeometry width="50" height="50" relative="1" as="geometry">
                        <mxPoint x="583.6399999999999" y="509.31999999999994" as="sourcePoint"/>
                        <mxPoint x="670" y="510" as="targetPoint"/>
                    </mxGeometry>
                </mxCell>
                <mxCell id="2mbCkAHCbmfvW81uv0aI-4" style="edgeStyle=none;html=1;fontSize=9;" parent="1" source="URQET4hBTQHEzSVSLaP8-1" target="2mbCkAHCbmfvW81uv0aI-2" edge="1">
                    <mxGeometry relative="1" as="geometry"/>
                </mxCell>
                <mxCell id="URQET4hBTQHEzSVSLaP8-1" value="送信内容&lt;br&gt;書き込み表示" style="ellipse;shape=umlControl;whiteSpace=wrap;html=1;fontSize=9;" parent="1" vertex="1">
                    <mxGeometry x="450" y="430" width="70" height="80" as="geometry"/>
                </mxCell>
                <mxCell id="2mbCkAHCbmfvW81uv0aI-1" style="edgeStyle=none;html=1;entryX=1.057;entryY=0.558;entryDx=0;entryDy=0;entryPerimeter=0;fontSize=9;" parent="1" source="2mbCkAHCbmfvW81uv0aI-2" target="2mbCkAHCbmfvW81uv0aI-3" edge="1">
                    <mxGeometry relative="1" as="geometry"/>
                </mxCell>
                <mxCell id="2mbCkAHCbmfvW81uv0aI-2" value="送信内容表示" style="ellipse;shape=umlControl;whiteSpace=wrap;html=1;fontSize=9;" parent="1" vertex="1">
                    <mxGeometry x="318" y="500" width="70" height="80" as="geometry"/>
                </mxCell>
                <mxCell id="2mbCkAHCbmfvW81uv0aI-3" value="送信完了" style="shape=umlBoundary;whiteSpace=wrap;html=1;fontSize=9;" parent="1" vertex="1">
                    <mxGeometry x="140" y="490" width="100" height="80" as="geometry"/>
                </mxCell>
                <mxCell id="8L7pr0hwpxQIS6gOrwU_-2" value="チャット最終&lt;br&gt;履歴取得" style="ellipse;shape=umlControl;whiteSpace=wrap;html=1;fontSize=9;" parent="1" vertex="1">
                    <mxGeometry x="450" y="670" width="70" height="80" as="geometry"/>
                </mxCell>
                <mxCell id="8L7pr0hwpxQIS6gOrwU_-3" value="チャット&lt;br&gt;セッション" style="ellipse;shape=umlEntity;whiteSpace=wrap;html=1;fontSize=9;" parent="1" vertex="1">
                    <mxGeometry x="670" y="670" width="80" height="80" as="geometry"/>
                </mxCell>
                <mxCell id="8L7pr0hwpxQIS6gOrwU_-4" value="" style="endArrow=classic;startArrow=classic;html=1;fontSize=9;exitX=1.024;exitY=0.517;exitDx=0;exitDy=0;exitPerimeter=0;" parent="1" source="8L7pr0hwpxQIS6gOrwU_-2" target="8L7pr0hwpxQIS6gOrwU_-3" edge="1">
                    <mxGeometry width="50" height="50" relative="1" as="geometry">
                        <mxPoint x="580" y="840" as="sourcePoint"/>
                        <mxPoint x="630" y="790" as="targetPoint"/>
                    </mxGeometry>
                </mxCell>
                <mxCell id="8L7pr0hwpxQIS6gOrwU_-5" value="ユーザーの取得" style="ellipse;shape=umlControl;whiteSpace=wrap;html=1;fontSize=9;" parent="1" vertex="1">
                    <mxGeometry x="450" y="570" width="70" height="80" as="geometry"/>
                </mxCell>
                <mxCell id="8L7pr0hwpxQIS6gOrwU_-6" value="ユーザー" style="ellipse;shape=umlEntity;whiteSpace=wrap;html=1;fontSize=9;" parent="1" vertex="1">
                    <mxGeometry x="680" y="570" width="80" height="80" as="geometry"/>
                </mxCell>
                <mxCell id="8L7pr0hwpxQIS6gOrwU_-7" value="" style="endArrow=classic;startArrow=classic;html=1;fontSize=9;entryX=0;entryY=0.5;entryDx=0;entryDy=0;" parent="1" source="8L7pr0hwpxQIS6gOrwU_-5" target="8L7pr0hwpxQIS6gOrwU_-6" edge="1">
                    <mxGeometry width="50" height="50" relative="1" as="geometry">
                        <mxPoint x="541.6799999999998" y="671.3599999999999" as="sourcePoint"/>
                        <mxPoint x="630.0013659569422" y="670.3305672234962" as="targetPoint"/>
                    </mxGeometry>
                </mxCell>
                <mxCell id="cUJyIcOux7dmS6leb_UV-2" value="メッセージ" style="ellipse;shape=umlEntity;whiteSpace=wrap;html=1;fontSize=9;" parent="1" vertex="1">
                    <mxGeometry x="640" y="340" width="80" height="80" as="geometry"/>
                </mxCell>
                <mxCell id="cUJyIcOux7dmS6leb_UV-3" value="メッセージ" style="ellipse;shape=umlEntity;whiteSpace=wrap;html=1;fontSize=9;" parent="1" vertex="1">
                    <mxGeometry x="640" y="430" width="80" height="80" as="geometry"/>
                </mxCell>
            </root>
        </mxGraphModel>
    </diagram>
    <diagram name="ユーザーの異常確認(２)" id="pYO4nKiCW-Ia7tay9DnZ">
        <mxGraphModel dx="488" dy="419" grid="1" gridSize="10" guides="1" tooltips="1" connect="1" arrows="1" fold="1" page="1" pageScale="1" pageWidth="827" pageHeight="1169" math="0" shadow="0">
            <root>
                <mxCell id="rjB2SGXHu6qWuOy3jarZ-0"/>
                <mxCell id="rjB2SGXHu6qWuOy3jarZ-1" parent="rjB2SGXHu6qWuOy3jarZ-0"/>
                <mxCell id="rjB2SGXHu6qWuOy3jarZ-2" style="edgeStyle=none;html=1;entryX=0;entryY=0.5;entryDx=0;entryDy=0;entryPerimeter=0;fontSize=9;" parent="rjB2SGXHu6qWuOy3jarZ-1" source="rjB2SGXHu6qWuOy3jarZ-4" target="rjB2SGXHu6qWuOy3jarZ-5" edge="1">
                    <mxGeometry relative="1" as="geometry"/>
                </mxCell>
                <mxCell id="rjB2SGXHu6qWuOy3jarZ-4" value="システム管理者" style="shape=umlActor;verticalLabelPosition=bottom;verticalAlign=top;html=1;fontSize=9;" parent="rjB2SGXHu6qWuOy3jarZ-1" vertex="1">
                    <mxGeometry x="10" y="150" width="50" height="120" as="geometry"/>
                </mxCell>
                <mxCell id="rjB2SGXHu6qWuOy3jarZ-5" value="異常確認画面" style="shape=umlBoundary;whiteSpace=wrap;html=1;fontSize=9;" parent="rjB2SGXHu6qWuOy3jarZ-1" vertex="1">
                    <mxGeometry x="160" y="170" width="100" height="80" as="geometry"/>
                </mxCell>
                <mxCell id="rjB2SGXHu6qWuOy3jarZ-6" style="edgeStyle=none;html=1;fontSize=9;entryX=1.006;entryY=0.546;entryDx=0;entryDy=0;entryPerimeter=0;" parent="rjB2SGXHu6qWuOy3jarZ-1" source="rjB2SGXHu6qWuOy3jarZ-7" target="rjB2SGXHu6qWuOy3jarZ-5" edge="1">
                    <mxGeometry relative="1" as="geometry">
                        <mxPoint x="265" y="186.08695652173913" as="targetPoint"/>
                    </mxGeometry>
                </mxCell>
                <mxCell id="rjB2SGXHu6qWuOy3jarZ-7" value="位置情報取得" style="ellipse;shape=umlControl;whiteSpace=wrap;html=1;fontSize=9;" parent="rjB2SGXHu6qWuOy3jarZ-1" vertex="1">
                    <mxGeometry x="414" y="230" width="70" height="80" as="geometry"/>
                </mxCell>
                <mxCell id="rjB2SGXHu6qWuOy3jarZ-8" value="位置情報履歴" style="ellipse;shape=umlEntity;whiteSpace=wrap;html=1;fontSize=9;" parent="rjB2SGXHu6qWuOy3jarZ-1" vertex="1">
                    <mxGeometry x="640" y="230" width="80" height="80" as="geometry"/>
                </mxCell>
                <mxCell id="rjB2SGXHu6qWuOy3jarZ-9" value="" style="endArrow=classic;startArrow=classic;html=1;fontSize=9;entryX=-0.034;entryY=0.61;entryDx=0;entryDy=0;entryPerimeter=0;exitX=0.989;exitY=0.612;exitDx=0;exitDy=0;exitPerimeter=0;" parent="rjB2SGXHu6qWuOy3jarZ-1" source="rjB2SGXHu6qWuOy3jarZ-7" target="rjB2SGXHu6qWuOy3jarZ-8" edge="1">
                    <mxGeometry width="50" height="50" relative="1" as="geometry">
                        <mxPoint x="560" y="140" as="sourcePoint"/>
                        <mxPoint x="610" y="90" as="targetPoint"/>
                    </mxGeometry>
                </mxCell>
                <mxCell id="rjB2SGXHu6qWuOy3jarZ-10" style="edgeStyle=none;html=1;fontSize=9;" parent="rjB2SGXHu6qWuOy3jarZ-1" source="rjB2SGXHu6qWuOy3jarZ-11" target="rjB2SGXHu6qWuOy3jarZ-5" edge="1">
                    <mxGeometry relative="1" as="geometry">
                        <mxPoint x="265.5999999999999" y="199.51999999999998" as="targetPoint"/>
                    </mxGeometry>
                </mxCell>
                <mxCell id="rjB2SGXHu6qWuOy3jarZ-11" value="ユーザー取得" style="ellipse;shape=umlControl;whiteSpace=wrap;html=1;fontSize=9;" parent="rjB2SGXHu6qWuOy3jarZ-1" vertex="1">
                    <mxGeometry x="414" y="90" width="70" height="80" as="geometry"/>
                </mxCell>
                <mxCell id="rjB2SGXHu6qWuOy3jarZ-12" value="ユーザー" style="ellipse;shape=umlEntity;whiteSpace=wrap;html=1;fontSize=9;" parent="rjB2SGXHu6qWuOy3jarZ-1" vertex="1">
                    <mxGeometry x="640" y="100" width="80" height="80" as="geometry"/>
                </mxCell>
                <mxCell id="rjB2SGXHu6qWuOy3jarZ-13" value="" style="endArrow=classic;startArrow=classic;html=1;fontSize=9;entryX=0;entryY=0.5;entryDx=0;entryDy=0;exitX=1.011;exitY=0.61;exitDx=0;exitDy=0;exitPerimeter=0;" parent="rjB2SGXHu6qWuOy3jarZ-1" source="rjB2SGXHu6qWuOy3jarZ-11" target="rjB2SGXHu6qWuOy3jarZ-12" edge="1">
                    <mxGeometry width="50" height="50" relative="1" as="geometry">
                        <mxPoint x="480" y="219.57000000000005" as="sourcePoint"/>
                        <mxPoint x="628.0500000000002" y="219.41000000000008" as="targetPoint"/>
                    </mxGeometry>
                </mxCell>
                <mxCell id="rjB2SGXHu6qWuOy3jarZ-14" value="異常確認画面を押す" style="text;html=1;align=center;verticalAlign=middle;resizable=0;points=[];autosize=1;strokeColor=none;fillColor=none;fontSize=9;" parent="rjB2SGXHu6qWuOy3jarZ-1" vertex="1">
                    <mxGeometry x="60" y="190" width="100" height="20" as="geometry"/>
                </mxCell>
            </root>
        </mxGraphModel>
    </diagram>
    <diagram id="xOZixAMrcxemaM50zV5X" name="チャット">
        <mxGraphModel dx="1915" dy="1734" grid="1" gridSize="10" guides="1" tooltips="1" connect="1" arrows="1" fold="1" page="1" pageScale="1" pageWidth="827" pageHeight="1169" math="0" shadow="0">
            <root>
                <mxCell id="0"/>
                <mxCell id="1" parent="0"/>
                <mxCell id="3S9wRwrDKe8soDyWDR3R-2" style="edgeStyle=none;html=1;fontSize=9;" parent="1" source="VFEVzuV8cq9qRcw9tCmp-1" target="3S9wRwrDKe8soDyWDR3R-1" edge="1">
                    <mxGeometry relative="1" as="geometry"/>
                </mxCell>
                <mxCell id="dxsurRkE6L5CViGmTqMx-2" style="edgeStyle=none;html=1;fontSize=9;" parent="1" source="VFEVzuV8cq9qRcw9tCmp-1" target="dxsurRkE6L5CViGmTqMx-1" edge="1">
                    <mxGeometry relative="1" as="geometry"/>
                </mxCell>
                <mxCell id="VFEVzuV8cq9qRcw9tCmp-1" value="システム管理者" style="shape=umlActor;verticalLabelPosition=bottom;verticalAlign=top;html=1;outlineConnect=0;fontSize=9;" parent="1" vertex="1">
                    <mxGeometry y="190" width="50" height="90" as="geometry"/>
                </mxCell>
                <mxCell id="3S9wRwrDKe8soDyWDR3R-5" style="edgeStyle=none;html=1;fontSize=9;" parent="1" source="3S9wRwrDKe8soDyWDR3R-1" target="3S9wRwrDKe8soDyWDR3R-4" edge="1">
                    <mxGeometry relative="1" as="geometry">
                        <mxPoint x="477.69000000000005" y="-38.960000000000036" as="targetPoint"/>
                    </mxGeometry>
                </mxCell>
                <mxCell id="3S9wRwrDKe8soDyWDR3R-1" value="チャット相手&lt;br&gt;指定画面" style="shape=umlBoundary;whiteSpace=wrap;html=1;fontSize=9;" parent="1" vertex="1">
                    <mxGeometry x="240" y="-10" width="100" height="80" as="geometry"/>
                </mxCell>
                <mxCell id="3S9wRwrDKe8soDyWDR3R-3" value="ユーザーの選択をする" style="text;html=1;align=center;verticalAlign=middle;resizable=0;points=[];autosize=1;strokeColor=none;fillColor=none;fontSize=9;" parent="1" vertex="1">
                    <mxGeometry x="80" y="130" width="110" height="20" as="geometry"/>
                </mxCell>
                <mxCell id="dxsurRkE6L5CViGmTqMx-4" style="edgeStyle=none;html=1;fontSize=9;" parent="1" source="3S9wRwrDKe8soDyWDR3R-4" target="dxsurRkE6L5CViGmTqMx-1" edge="1">
                    <mxGeometry relative="1" as="geometry"/>
                </mxCell>
                <mxCell id="3S9wRwrDKe8soDyWDR3R-4" value="チャット&lt;br&gt;履歴取得" style="ellipse;shape=umlControl;whiteSpace=wrap;html=1;fontSize=9;" parent="1" vertex="1">
                    <mxGeometry x="430" y="-10" width="70" height="80" as="geometry"/>
                </mxCell>
                <mxCell id="3S9wRwrDKe8soDyWDR3R-7" value="" style="endArrow=classic;startArrow=classic;html=1;fontSize=9;exitX=1.024;exitY=0.517;exitDx=0;exitDy=0;exitPerimeter=0;" parent="1" source="3S9wRwrDKe8soDyWDR3R-4" target="UWUBJGPlm5SBbb5BDBo--1" edge="1">
                    <mxGeometry width="50" height="50" relative="1" as="geometry">
                        <mxPoint x="620" y="160" as="sourcePoint"/>
                        <mxPoint x="680.3560706052704" y="85.32530394854598" as="targetPoint"/>
                    </mxGeometry>
                </mxCell>
                <mxCell id="dxsurRkE6L5CViGmTqMx-6" style="edgeStyle=none;html=1;entryX=-0.005;entryY=0.588;entryDx=0;entryDy=0;entryPerimeter=0;fontSize=9;" parent="1" source="dxsurRkE6L5CViGmTqMx-1" target="dxsurRkE6L5CViGmTqMx-5" edge="1">
                    <mxGeometry relative="1" as="geometry"/>
                </mxCell>
                <mxCell id="dxsurRkE6L5CViGmTqMx-1" value="ユーザー&lt;br&gt;チャット画面" style="shape=umlBoundary;whiteSpace=wrap;html=1;fontSize=9;" parent="1" vertex="1">
                    <mxGeometry x="260" y="220" width="100" height="80" as="geometry"/>
                </mxCell>
                <mxCell id="dxsurRkE6L5CViGmTqMx-3" value="内容を書き送信" style="text;html=1;align=center;verticalAlign=middle;resizable=0;points=[];autosize=1;strokeColor=none;fillColor=none;fontSize=9;" parent="1" vertex="1">
                    <mxGeometry x="110" y="220" width="90" height="20" as="geometry"/>
                </mxCell>
                <mxCell id="dxsurRkE6L5CViGmTqMx-10" style="edgeStyle=none;html=1;fontSize=9;" parent="1" source="dxsurRkE6L5CViGmTqMx-5" target="dxsurRkE6L5CViGmTqMx-11" edge="1">
                    <mxGeometry relative="1" as="geometry">
                        <mxPoint x="460.97999999999956" y="364.6400000000003" as="targetPoint"/>
                    </mxGeometry>
                </mxCell>
                <mxCell id="dxsurRkE6L5CViGmTqMx-14" style="edgeStyle=none;html=1;fontSize=9;" parent="1" source="3S9wRwrDKe8soDyWDR3R-4" target="dxsurRkE6L5CViGmTqMx-13" edge="1">
                    <mxGeometry relative="1" as="geometry">
                        <mxPoint x="535.1493077185942" y="290.0039869648166" as="sourcePoint"/>
                    </mxGeometry>
                </mxCell>
                <mxCell id="dxsurRkE6L5CViGmTqMx-5" value="送信内容&lt;br&gt;書き込み表示" style="ellipse;shape=umlControl;whiteSpace=wrap;html=1;fontSize=9;" parent="1" vertex="1">
                    <mxGeometry x="490" y="260" width="70" height="80" as="geometry"/>
                </mxCell>
                <mxCell id="dxsurRkE6L5CViGmTqMx-8" value="" style="endArrow=classic;startArrow=classic;html=1;fontSize=9;exitX=1.052;exitY=0.554;exitDx=0;exitDy=0;exitPerimeter=0;" parent="1" source="dxsurRkE6L5CViGmTqMx-5" edge="1" target="UWUBJGPlm5SBbb5BDBo--2">
                    <mxGeometry width="50" height="50" relative="1" as="geometry">
                        <mxPoint x="630" y="335" as="sourcePoint"/>
                        <mxPoint x="680" y="285" as="targetPoint"/>
                    </mxGeometry>
                </mxCell>
                <mxCell id="dxsurRkE6L5CViGmTqMx-20" style="edgeStyle=none;html=1;fontSize=9;" parent="1" source="dxsurRkE6L5CViGmTqMx-5" target="dxsurRkE6L5CViGmTqMx-19" edge="1">
                    <mxGeometry relative="1" as="geometry">
                        <mxPoint x="579.9983750097036" y="300.3570101416915" as="sourcePoint"/>
                    </mxGeometry>
                </mxCell>
                <mxCell id="dxsurRkE6L5CViGmTqMx-11" value="送信完了" style="shape=umlBoundary;whiteSpace=wrap;html=1;fontSize=9;" parent="1" vertex="1">
                    <mxGeometry x="330" y="350" width="100" height="80" as="geometry"/>
                </mxCell>
                <mxCell id="dxsurRkE6L5CViGmTqMx-16" style="edgeStyle=none;html=1;fontSize=9;" parent="1" source="3S9wRwrDKe8soDyWDR3R-4" target="4u_gSU5hXyktzI25l8rN-1" edge="1">
                    <mxGeometry relative="1" as="geometry">
                        <mxPoint x="570.0046356145227" y="-180.00477399960369" as="sourcePoint"/>
                    </mxGeometry>
                </mxCell>
                <mxCell id="dxsurRkE6L5CViGmTqMx-18" style="edgeStyle=none;html=1;fontSize=9;" parent="1" source="dxsurRkE6L5CViGmTqMx-13" target="dxsurRkE6L5CViGmTqMx-17" edge="1">
                    <mxGeometry relative="1" as="geometry"/>
                </mxCell>
                <mxCell id="dxsurRkE6L5CViGmTqMx-13" value="エラー表示" style="ellipse;shape=umlControl;whiteSpace=wrap;html=1;fontSize=9;" parent="1" vertex="1">
                    <mxGeometry x="540" y="150" width="70" height="80" as="geometry"/>
                </mxCell>
                <mxCell id="dxsurRkE6L5CViGmTqMx-15" value="ユーザー選択&lt;br&gt;失敗画面" style="shape=umlBoundary;whiteSpace=wrap;html=1;fontSize=9;" parent="1" vertex="1">
                    <mxGeometry x="735" y="80" width="100.61" height="80" as="geometry"/>
                </mxCell>
                <mxCell id="dxsurRkE6L5CViGmTqMx-17" value="チャット画面表示&lt;br&gt;失敗画面" style="shape=umlBoundary;whiteSpace=wrap;html=1;fontSize=9;" parent="1" vertex="1">
                    <mxGeometry x="690" y="170" width="100" height="80" as="geometry"/>
                </mxCell>
                <mxCell id="dxsurRkE6L5CViGmTqMx-22" style="edgeStyle=none;html=1;fontSize=9;" parent="1" source="dxsurRkE6L5CViGmTqMx-19" target="dxsurRkE6L5CViGmTqMx-21" edge="1">
                    <mxGeometry relative="1" as="geometry">
                        <mxPoint x="704.87" y="502.3600000000001" as="targetPoint"/>
                    </mxGeometry>
                </mxCell>
                <mxCell id="dxsurRkE6L5CViGmTqMx-19" value="エラー表示" style="ellipse;shape=umlControl;whiteSpace=wrap;html=1;fontSize=9;" parent="1" vertex="1">
                    <mxGeometry x="570" y="370" width="70" height="80" as="geometry"/>
                </mxCell>
                <mxCell id="dxsurRkE6L5CViGmTqMx-21" value="送信失敗画面" style="shape=umlBoundary;whiteSpace=wrap;html=1;fontSize=9;" parent="1" vertex="1">
                    <mxGeometry x="690" y="430" width="100" height="80" as="geometry"/>
                </mxCell>
                <mxCell id="UWUBJGPlm5SBbb5BDBo--1" value="メッセージ" style="ellipse;shape=umlEntity;whiteSpace=wrap;html=1;fontSize=9;" parent="1" vertex="1">
                    <mxGeometry x="540" y="-90" width="80" height="80" as="geometry"/>
                </mxCell>
                <mxCell id="UWUBJGPlm5SBbb5BDBo--2" value="メッセージ" style="ellipse;shape=umlEntity;whiteSpace=wrap;html=1;fontSize=9;" parent="1" vertex="1">
                    <mxGeometry x="660" y="270" width="80" height="80" as="geometry"/>
                </mxCell>
                <mxCell id="4u_gSU5hXyktzI25l8rN-2" style="edgeStyle=none;html=1;" edge="1" parent="1" source="4u_gSU5hXyktzI25l8rN-1" target="dxsurRkE6L5CViGmTqMx-15">
                    <mxGeometry relative="1" as="geometry"/>
                </mxCell>
                <mxCell id="4u_gSU5hXyktzI25l8rN-1" value="エラー表示" style="ellipse;shape=umlControl;whiteSpace=wrap;html=1;fontSize=9;" vertex="1" parent="1">
                    <mxGeometry x="600" y="80" width="70" height="80" as="geometry"/>
                </mxCell>
                <mxCell id="4u_gSU5hXyktzI25l8rN-4" value="相手とのチャット履歴を取得" style="text;html=1;align=center;verticalAlign=middle;resizable=0;points=[];autosize=1;strokeColor=none;fillColor=none;" vertex="1" parent="1">
                    <mxGeometry x="530" y="10" width="180" height="30" as="geometry"/>
                </mxCell>
                <mxCell id="4u_gSU5hXyktzI25l8rN-6" value="チャットを保存" style="text;html=1;align=center;verticalAlign=middle;resizable=0;points=[];autosize=1;strokeColor=none;fillColor=none;" vertex="1" parent="1">
                    <mxGeometry x="550" y="280" width="110" height="30" as="geometry"/>
                </mxCell>
            </root>
        </mxGraphModel>
    </diagram>
</mxfile>